<svg width="50" height="50" viewBox="0 0 50 50" fill="none" xmlns="http://www.w3.org/2000/svg">
<path d="M31.25 18.75H30.25C30.25 19.3023 30.6977 19.75 31.25 19.75L31.25 18.75ZM18.75 18.75L18.75 19.75C19.0152 19.75 19.2696 19.6446 19.4571 19.4571C19.6446 19.2696 19.75 19.0152 19.75 18.75H18.75ZM18.75 8.33333H19.75H18.75ZM18.75 41.6667H17.75H18.75ZM18.75 31.25H19.75C19.75 30.6977 19.3023 30.25 18.75 30.25V31.25ZM31.25 31.25V30.25C30.6977 30.25 30.25 30.6977 30.25 31.25H31.25ZM41.6667 18.75V19.75V18.75ZM8.33333 18.75L8.33333 17.75H8.33333V18.75ZM8.33333 31.25L8.33333 30.25H8.33333V31.25ZM29.1667 42.75H20.8333V44.75H29.1667V42.75ZM20.8333 7.25H29.1667V5.25H20.8333V7.25ZM30.25 8.33333V18.75H32.25V8.33333H30.25ZM19.75 18.75L19.75 8.33333H17.75L17.75 18.75L19.75 18.75ZM19.75 41.6667L19.75 31.25L17.75 31.25L17.75 41.6667H19.75ZM30.25 31.25V41.6667H32.25V31.25H30.25ZM20.8333 5.25C19.1305 5.25 17.75 6.63046 17.75 8.33333H19.75C19.75 7.73502 20.235 7.25 20.8333 7.25V5.25ZM20.8333 42.75C20.235 42.75 19.75 42.265 19.75 41.6667H17.75C17.75 43.3695 19.1305 44.75 20.8333 44.75V42.75ZM29.1667 44.75C30.8695 44.75 32.25 43.3695 32.25 41.6667H30.25C30.25 42.265 29.765 42.75 29.1667 42.75V44.75ZM29.1667 7.25C29.765 7.25 30.25 7.73503 30.25 8.33333H32.25C32.25 6.63046 30.8695 5.25 29.1667 5.25V7.25ZM7.25 29.1667V20.8333H5.25V29.1667H7.25ZM42.75 20.8333V29.1667H44.75V20.8333H42.75ZM41.6667 30.25H31.25V32.25H41.6667V30.25ZM31.25 19.75L41.6667 19.75V17.75L31.25 17.75L31.25 19.75ZM8.33333 19.75L18.75 19.75L18.75 17.75L8.33333 17.75L8.33333 19.75ZM18.75 30.25L8.33333 30.25L8.33333 32.25L18.75 32.25L18.75 30.25ZM44.75 20.8333C44.75 19.1305 43.3695 17.75 41.6667 17.75V19.75C42.265 19.75 42.75 20.235 42.75 20.8333H44.75ZM7.25 20.8333C7.25 20.235 7.73503 19.75 8.33333 19.75V17.75C6.63046 17.75 5.25 19.1305 5.25 20.8333H7.25ZM5.25 29.1667C5.25 30.8695 6.63046 32.25 8.33333 32.25V30.25C7.73503 30.25 7.25 29.765 7.25 29.1667H5.25ZM42.75 29.1667C42.75 29.765 42.265 30.25 41.6667 30.25V32.25C43.3695 32.25 44.75 30.8695 44.75 29.1667H42.75Z" fill="#3CB054"/>
</svg>
